<?xml version="1.0" encoding="UTF-8"?>
<svg xmlns="http://www.w3.org/2000/svg" viewBox="0 0 760 360"
     font-family="'Caveat', 'Patrick Hand', 'Comic Sans MS', cursive"
     font-size="22">
  <defs>
    <marker id="arrow3" viewBox="0 0 10 10" refX="9" refY="5"
            markerWidth="7" markerHeight="7" orient="auto">
      <path d="M0,0 L10,5 L0,10 z" fill="#1e1e1e"/>
    </marker>
  </defs>
  <style>
    .axis  { stroke: #1e1e1e; stroke-width: 2.5; stroke-linecap: round;
             fill: none; }
    .tick  { stroke: #1e1e1e; stroke-width: 2; }
    .marker{ stroke: #1e1e1e; stroke-width: 2; stroke-dasharray: 4 4; }
    .box   { fill: #fefefe; stroke: #1e1e1e; stroke-width: 2.5;
             stroke-linejoin: round; }
    .fail  { fill: #fecaca; }
    .lossy { fill: #fed7aa; }
    .clean { fill: #d1fae5; }
    .label { fill: #1e1e1e; text-anchor: middle; dominant-baseline: middle; }
    .small { font-size: 18px; }
    .arrow { stroke: #1e1e1e; stroke-width: 2; fill: none;
             marker-end: url(#arrow3); }
  </style>

  <!-- Title row: "confidence →" -->
  <text class="label" x="40" y="36" text-anchor="start">confidence</text>
  <path class="arrow" d="M 145 32 L 200 32"/>

  <!-- Axis from 0 to 1 -->
  <line class="axis" x1="60" y1="80" x2="700" y2="80"/>
  <text class="label" x="60"  y="58">0</text>
  <text class="label" x="700" y="58">1</text>

  <!-- Floor and threshold dashed verticals -->
  <line class="marker" x1="270" y1="80" x2="270" y2="160"/>
  <line class="marker" x1="500" y1="80" x2="500" y2="160"/>
  <text class="label small" x="270" y="178">floor</text>
  <text class="label small" x="500" y="178">threshold</text>

  <!-- Three zone rectangles -->
  <rect class="box fail"  x="60"  y="200" width="200" height="130" rx="6"/>
  <rect class="box lossy" x="270" y="200" width="220" height="130" rx="6"/>
  <rect class="box clean" x="500" y="200" width="200" height="130" rx="6"/>

  <text class="label" x="160" y="222" font-size="22">parse_failed</text>
  <text class="label small" x="160" y="258">retain body,</text>
  <text class="label small" x="160" y="280">count error</text>

  <text class="label" x="380" y="222" font-size="22">lossy match</text>
  <text class="label small" x="380" y="252">retain body +</text>
  <text class="label small" x="380" y="274">template, set</text>
  <text class="label small" x="380" y="296">lossy_flag</text>

  <text class="label" x="600" y="222" font-size="22">clean match</text>
  <text class="label small" x="600" y="258">template + params</text>
  <text class="label small" x="600" y="280">only; body opt.</text>
</svg>
